<svg xmlns="http://www.w3.org/2000/svg" xmlns:xlink="http://www.w3.org/1999/xlink" width="2000" zoomAndPan="magnify" viewBox="0 0 1500 1499.999933" height="2000" preserveAspectRatio="xMidYMid meet" version="1.0"><defs><g/><clipPath id="1c87a30fc3"><path d="M 580 862 L 914 862 L 914 918.828125 L 580 918.828125 Z M 580 862 " clip-rule="nonzero"/></clipPath><clipPath id="709f8c9d83"><path d="M 964 369.078125 L 1007 369.078125 L 1007 412 L 964 412 Z M 964 369.078125 " clip-rule="nonzero"/></clipPath></defs><path fill="#005eb8" d="M 980.160156 686.253906 L 980.160156 753.332031 C 980.160156 762.332031 972.960938 769.535156 963.960938 769.535156 L 529.921875 769.535156 C 521.039062 769.535156 513.71875 762.332031 513.71875 753.332031 L 513.71875 671.132812 L 573 671.132812 C 580.558594 671.132812 586.558594 665.132812 586.558594 657.574219 C 586.558594 650.132812 580.558594 644.015625 573 644.015625 L 513.71875 644.015625 L 513.71875 594.574219 L 629.28125 594.574219 C 636.839844 594.574219 642.839844 588.574219 642.839844 581.132812 C 642.839844 573.574219 636.839844 567.574219 629.28125 567.574219 L 513.71875 567.574219 L 513.71875 485.375 C 513.71875 476.375 521.039062 469.175781 529.921875 469.175781 L 763.800781 469.175781 C 782.160156 440.015625 810.121094 417.214844 843 405.332031 L 529.921875 405.332031 C 485.878906 405.332031 450 441.214844 450 485.253906 L 450 753.332031 C 450 797.375 485.878906 833.253906 529.921875 833.253906 L 965.398438 833.253906 C 1008.960938 832.292969 1044 796.894531 1044 753.332031 L 1044 607.652344 C 1032 640.292969 1009.199219 668.015625 980.160156 686.253906 Z M 980.160156 686.253906 " fill-opacity="1" fill-rule="nonzero"/><g clip-path="url(#1c87a30fc3)"><path fill="#005eb8" d="M 881.640625 886.175781 L 785.28125 886.175781 L 785.28125 862.175781 L 708.71875 862.175781 L 708.71875 886.175781 L 612.359375 886.175781 C 594.601562 886.175781 580.078125 900.574219 580.078125 918.453125 L 913.800781 918.453125 C 913.800781 900.574219 899.398438 886.175781 881.640625 886.175781 Z M 881.640625 886.175781 " fill-opacity="1" fill-rule="nonzero"/></g><path fill="#005eb8" d="M 989.640625 569.015625 L 1029.71875 569.015625 C 1022.039062 635.613281 965.398438 687.453125 896.640625 687.453125 C 834.238281 687.453125 781.679688 644.855469 766.679688 587.132812 L 830.039062 587.132812 C 833.640625 587.132812 836.640625 584.253906 836.640625 580.535156 L 836.640625 574.054688 L 855.601562 605.972656 C 857.039062 608.375 859.800781 609.574219 862.558594 608.972656 C 865.320312 608.492188 867.359375 606.214844 867.839844 603.453125 L 880.441406 510.214844 L 892.441406 657.8125 C 892.679688 660.933594 895.199219 663.574219 898.441406 663.8125 C 898.679688 663.8125 898.800781 663.933594 898.921875 663.933594 C 901.921875 663.933594 904.558594 661.894531 905.28125 658.894531 L 923.398438 587.613281 L 937.558594 612.332031 C 938.878906 614.855469 941.878906 616.054688 944.640625 615.574219 C 947.398438 614.972656 949.558594 612.574219 949.800781 609.695312 L 953.878906 566.015625 L 968.398438 601.175781 C 969.480469 603.695312 972 605.375 974.878906 605.132812 C 977.640625 605.015625 980.039062 603.09375 980.878906 600.453125 Z M 989.640625 569.015625 " fill-opacity="1" fill-rule="nonzero"/><path fill="#005eb8" d="M 1030.800781 553.175781 C 1030.800781 554.132812 1030.800781 554.972656 1030.679688 555.933594 L 984.71875 555.933594 C 981.839844 555.933594 979.199219 557.972656 978.359375 560.734375 L 973.078125 578.972656 L 955.679688 536.613281 C 954.480469 533.734375 951.601562 532.175781 948.601562 532.652344 C 945.71875 533.015625 943.320312 535.535156 943.078125 538.535156 L 938.519531 587.972656 L 926.761719 567.214844 C 925.441406 564.8125 922.800781 563.492188 920.039062 563.855469 C 917.398438 564.214844 915.238281 566.132812 914.640625 568.773438 L 902.160156 617.613281 L 888.480469 448.773438 C 888.238281 445.414062 885.480469 442.773438 882.121094 442.773438 C 878.28125 442.292969 875.878906 445.054688 875.398438 448.414062 L 857.160156 583.054688 L 835.679688 546.8125 C 834.121094 544.175781 831.121094 543.09375 828.238281 543.8125 C 825.359375 544.652344 823.441406 547.175781 823.441406 550.175781 L 823.441406 573.933594 L 764.039062 573.933594 C 762.839844 567.09375 762.359375 560.132812 762.359375 553.054688 C 762.359375 479.132812 822.480469 418.652344 896.761719 418.652344 C 916.441406 418.652344 934.921875 422.972656 951.71875 430.414062 C 951.601562 430.894531 951.480469 431.613281 951.480469 432.09375 L 951.480469 465.574219 C 951.480469 470.132812 955.199219 473.972656 959.878906 473.972656 L 993.359375 473.972656 C 996.839844 473.972656 999.839844 471.8125 1001.039062 468.695312 C 1019.640625 491.855469 1030.800781 521.253906 1030.800781 553.175781 Z M 1030.800781 553.175781 " fill-opacity="1" fill-rule="nonzero"/><path fill="#005eb8" d="M 967.441406 464.492188 L 988.199219 464.492188 C 991.078125 464.492188 993.359375 462.214844 993.359375 459.332031 L 993.359375 438.574219 C 993.359375 435.695312 991.078125 433.414062 988.199219 433.414062 L 967.441406 433.414062 C 964.558594 433.414062 962.28125 435.695312 962.28125 438.574219 L 962.28125 459.332031 C 962.398438 462.214844 964.679688 464.492188 967.441406 464.492188 Z M 967.441406 464.492188 " fill-opacity="1" fill-rule="nonzero"/><g clip-path="url(#709f8c9d83)"><path fill="#005eb8" d="M 969.839844 411.574219 L 1001.160156 411.574219 C 1004.160156 411.574219 1006.558594 409.175781 1006.558594 406.175781 L 1006.558594 374.855469 C 1006.558594 371.855469 1004.160156 369.453125 1001.160156 369.453125 L 969.839844 369.453125 C 966.839844 369.453125 964.441406 371.855469 964.441406 374.855469 L 964.441406 406.175781 C 964.320312 409.175781 966.839844 411.574219 969.839844 411.574219 Z M 969.839844 411.574219 " fill-opacity="1" fill-rule="nonzero"/></g><path fill="#005eb8" d="M 1045.921875 418.175781 L 1022.160156 418.175781 C 1019.878906 418.175781 1018.078125 419.972656 1018.078125 422.253906 L 1018.078125 446.015625 C 1018.078125 448.292969 1019.878906 450.09375 1022.160156 450.09375 L 1045.921875 450.09375 C 1048.199219 450.09375 1050 448.292969 1050 446.015625 L 1050 422.375 C 1050 420.09375 1048.199219 418.175781 1045.921875 418.175781 Z M 1045.921875 418.175781 " fill-opacity="1" fill-rule="nonzero"/><g fill="#00b6c5" fill-opacity="0.4"><g transform="translate(334.347605, 1081.302607)"><g><path d="M 54.703125 -126.234375 C 61.410156 -126.234375 67.96875 -125.253906 74.375 -123.296875 C 80.789062 -121.347656 85.554688 -119.421875 88.671875 -117.515625 L 93.171875 -114.515625 L 81.75 -91.96875 C 80.851562 -92.570312 79.601562 -93.347656 78 -94.296875 C 76.394531 -95.253906 73.382812 -96.53125 68.96875 -98.125 C 64.5625 -99.726562 60.457031 -100.53125 56.65625 -100.53125 C 51.945312 -100.53125 48.3125 -99.53125 45.75 -97.53125 C 43.195312 -95.53125 41.921875 -92.828125 41.921875 -89.421875 C 41.921875 -87.710938 42.519531 -86.128906 43.71875 -84.671875 C 44.925781 -83.222656 46.984375 -81.671875 49.890625 -80.015625 C 52.796875 -78.367188 55.347656 -77.046875 57.546875 -76.046875 C 59.753906 -75.046875 63.164062 -73.539062 67.78125 -71.53125 C 75.789062 -68.125 82.625 -63.488281 88.28125 -57.625 C 93.945312 -51.769531 96.78125 -45.132812 96.78125 -37.71875 C 96.78125 -30.601562 95.5 -24.390625 92.9375 -19.078125 C 90.382812 -13.773438 86.878906 -9.617188 82.421875 -6.609375 C 77.960938 -3.609375 73.03125 -1.382812 67.625 0.0625 C 62.21875 1.519531 56.359375 2.25 50.046875 2.25 C 44.628906 2.25 39.316406 1.695312 34.109375 0.59375 C 28.898438 -0.5 24.539062 -1.875 21.03125 -3.53125 C 17.53125 -5.1875 14.375 -6.8125 11.5625 -8.40625 C 8.757812 -10.007812 6.707031 -11.363281 5.40625 -12.46875 L 3.453125 -14.125 L 17.578125 -37.875 C 18.785156 -36.875 20.441406 -35.59375 22.546875 -34.03125 C 24.648438 -32.476562 28.378906 -30.398438 33.734375 -27.796875 C 39.097656 -25.191406 43.832031 -23.890625 47.9375 -23.890625 C 59.863281 -23.890625 65.828125 -27.945312 65.828125 -36.0625 C 65.828125 -37.769531 65.398438 -39.347656 64.546875 -40.796875 C 63.691406 -42.253906 62.1875 -43.707031 60.03125 -45.15625 C 57.882812 -46.613281 55.984375 -47.765625 54.328125 -48.609375 C 52.671875 -49.460938 49.960938 -50.765625 46.203125 -52.515625 C 42.453125 -54.273438 39.675781 -55.601562 37.875 -56.5 C 30.351562 -60.207031 24.539062 -64.84375 20.4375 -70.40625 C 16.332031 -75.96875 14.28125 -81.953125 14.28125 -88.359375 C 14.28125 -99.484375 18.382812 -108.578125 26.59375 -115.640625 C 34.8125 -122.703125 44.179688 -126.234375 54.703125 -126.234375 Z M 54.703125 -126.234375 "/></g></g></g><g fill="#00b6c5" fill-opacity="0.4"><g transform="translate(430.219228, 1081.302607)"><g><path d="M 88.359375 -67.546875 C 95.578125 -59.679688 99.1875 -50.035156 99.1875 -38.609375 C 99.1875 -27.191406 95.578125 -17.523438 88.359375 -9.609375 C 81.148438 -1.703125 71.984375 2.25 60.859375 2.25 C 50.640625 2.25 42.222656 -0.953125 35.609375 -7.359375 L 35.609375 39.078125 L 9.015625 39.078125 L 9.015625 -77.09375 L 35.3125 -77.09375 L 35.3125 -68.375 L 35.609375 -68.375 C 42.222656 -75.6875 50.640625 -79.34375 60.859375 -79.34375 C 71.984375 -79.34375 81.148438 -75.410156 88.359375 -67.546875 Z M 65.75 -25.546875 C 69.207031 -28.953125 70.9375 -33.3125 70.9375 -38.625 C 70.9375 -43.9375 69.28125 -48.269531 65.96875 -51.625 C 62.664062 -54.976562 58.3125 -56.65625 52.90625 -56.65625 C 47.6875 -56.65625 43.398438 -54.953125 40.046875 -51.546875 C 36.691406 -48.140625 35.015625 -43.832031 35.015625 -38.625 C 35.015625 -33.3125 36.742188 -28.953125 40.203125 -25.546875 C 43.660156 -22.140625 47.894531 -20.4375 52.90625 -20.4375 C 58.007812 -20.4375 62.289062 -22.140625 65.75 -25.546875 Z M 65.75 -25.546875 "/></g></g></g><g fill="#00b6c5" fill-opacity="0.4"><g transform="translate(527.743813, 1081.302607)"><g><path d="M 16.296875 -9.171875 C 7.734375 -16.785156 3.453125 -26.550781 3.453125 -38.46875 C 3.453125 -50.394531 7.910156 -60.1875 16.828125 -67.84375 C 25.742188 -75.507812 36.765625 -79.34375 49.890625 -79.34375 C 62.816406 -79.34375 73.710938 -75.484375 82.578125 -67.765625 C 91.441406 -60.054688 95.875 -50.289062 95.875 -38.46875 C 95.875 -26.644531 91.539062 -16.898438 82.875 -9.234375 C 74.207031 -1.578125 63.210938 2.25 49.890625 2.25 C 36.066406 2.25 24.867188 -1.554688 16.296875 -9.171875 Z M 36.890625 -51.546875 C 33.429688 -48.140625 31.703125 -43.78125 31.703125 -38.46875 C 31.703125 -33.15625 33.351562 -28.820312 36.65625 -25.46875 C 39.96875 -22.113281 44.332031 -20.4375 49.75 -20.4375 C 54.957031 -20.4375 59.238281 -22.140625 62.59375 -25.546875 C 65.945312 -28.953125 67.625 -33.257812 67.625 -38.46875 C 67.625 -43.78125 65.894531 -48.140625 62.4375 -51.546875 C 58.976562 -54.953125 54.75 -56.65625 49.75 -56.65625 C 44.632812 -56.65625 40.347656 -54.953125 36.890625 -51.546875 Z M 36.890625 -51.546875 "/></g></g></g><g fill="#00b6c5" fill-opacity="0.4"><g transform="translate(621.962463, 1081.302607)"><g><path d="M 13.53125 -77.09375 L 13.53125 -105.796875 L 40.125 -105.796875 L 40.125 -77.09375 L 56.359375 -77.09375 L 56.359375 -56.8125 L 40.125 -56.8125 L 40.125 -32.3125 C 40.125 -25.195312 42.128906 -21.640625 46.140625 -21.640625 C 47.140625 -21.640625 48.191406 -21.835938 49.296875 -22.234375 C 50.398438 -22.640625 51.25 -23.039062 51.84375 -23.4375 L 52.75 -24.046875 L 59.359375 -2.5625 C 53.648438 0.644531 47.140625 2.25 39.828125 2.25 C 34.816406 2.25 30.503906 1.375 26.890625 -0.375 C 23.285156 -2.125 20.554688 -4.476562 18.703125 -7.4375 C 16.859375 -10.394531 15.535156 -13.5 14.734375 -16.75 C 13.929688 -20.007812 13.53125 -23.492188 13.53125 -27.203125 L 13.53125 -56.8125 L 2.40625 -56.8125 L 2.40625 -77.09375 Z M 13.53125 -77.09375 "/></g></g></g><g fill="#00b6c5" fill-opacity="0.4"><g transform="translate(676.209445, 1081.302607)"><g/></g></g><g fill="#00b6c5" fill-opacity="0.4"><g transform="translate(712.123543, 1081.302607)"><g><path d="M 74.984375 -25.546875 C 79.296875 -25.546875 83.476562 -26.195312 87.53125 -27.5 C 91.59375 -28.800781 94.578125 -30.054688 96.484375 -31.265625 L 99.328125 -33.21875 L 111.359375 -9.171875 C 110.953125 -8.867188 110.398438 -8.46875 109.703125 -7.96875 C 109.003906 -7.46875 107.375 -6.539062 104.8125 -5.1875 C 102.257812 -3.832031 99.53125 -2.65625 96.625 -1.65625 C 93.71875 -0.65625 89.910156 0.242188 85.203125 1.046875 C 80.492188 1.847656 75.632812 2.25 70.625 2.25 C 59.101562 2.25 48.179688 -0.578125 37.859375 -6.234375 C 27.546875 -11.898438 19.234375 -19.691406 12.921875 -29.609375 C 6.609375 -39.523438 3.453125 -50.242188 3.453125 -61.765625 C 3.453125 -70.484375 5.304688 -78.847656 9.015625 -86.859375 C 12.722656 -94.878906 17.65625 -101.742188 23.8125 -107.453125 C 29.976562 -113.160156 37.164062 -117.71875 45.375 -121.125 C 53.59375 -124.53125 62.007812 -126.234375 70.625 -126.234375 C 78.644531 -126.234375 86.035156 -125.28125 92.796875 -123.375 C 99.554688 -121.476562 104.34375 -119.578125 107.15625 -117.671875 L 111.359375 -114.8125 L 99.328125 -90.765625 C 98.628906 -91.367188 97.578125 -92.09375 96.171875 -92.9375 C 94.773438 -93.789062 91.972656 -94.921875 87.765625 -96.328125 C 83.554688 -97.734375 79.296875 -98.4375 74.984375 -98.4375 C 68.171875 -98.4375 62.0625 -97.332031 56.65625 -95.125 C 51.25 -92.925781 46.96875 -90.019531 43.8125 -86.40625 C 40.65625 -82.800781 38.25 -78.921875 36.59375 -74.765625 C 34.9375 -70.609375 34.109375 -66.375 34.109375 -62.0625 C 34.109375 -52.644531 37.640625 -44.203125 44.703125 -36.734375 C 51.765625 -29.273438 61.859375 -25.546875 74.984375 -25.546875 Z M 74.984375 -25.546875 "/></g></g></g><g fill="#00b6c5" fill-opacity="0.4"><g transform="translate(820.167021, 1081.302607)"><g><path d="M 9.015625 0 L 9.015625 -129.234375 L 35.609375 -129.234375 L 35.609375 -68.984375 L 35.921875 -68.984375 C 42.828125 -75.890625 50.191406 -79.34375 58.015625 -79.34375 C 61.816406 -79.34375 65.59375 -78.84375 69.34375 -77.84375 C 73.101562 -76.84375 76.710938 -75.289062 80.171875 -73.1875 C 83.628906 -71.082031 86.4375 -68.097656 88.59375 -64.234375 C 90.75 -60.378906 91.828125 -55.898438 91.828125 -50.796875 L 91.828125 0 L 65.21875 0 L 65.21875 -43.578125 C 65.21875 -47.585938 63.941406 -51.09375 61.390625 -54.09375 C 58.835938 -57.101562 55.503906 -58.609375 51.390625 -58.609375 C 47.390625 -58.609375 43.757812 -57.054688 40.5 -53.953125 C 37.238281 -50.847656 35.609375 -47.390625 35.609375 -43.578125 L 35.609375 0 Z M 9.015625 0 "/></g></g></g><g fill="#00b6c5" fill-opacity="0.4"><g transform="translate(914.385671, 1081.302607)"><g><path d="M 87.015625 -34.859375 L 31.109375 -34.859375 C 31.109375 -29.453125 32.859375 -25.445312 36.359375 -22.84375 C 39.867188 -20.238281 43.679688 -18.9375 47.796875 -18.9375 C 52.097656 -18.9375 55.5 -19.507812 58 -20.65625 C 60.507812 -21.8125 63.367188 -24.09375 66.578125 -27.5 L 85.8125 -17.890625 C 77.789062 -4.460938 64.460938 2.25 45.828125 2.25 C 34.210938 2.25 24.242188 -1.726562 15.921875 -9.6875 C 7.609375 -17.65625 3.453125 -27.25 3.453125 -38.46875 C 3.453125 -49.6875 7.609375 -59.300781 15.921875 -67.3125 C 24.242188 -75.332031 34.210938 -79.34375 45.828125 -79.34375 C 58.054688 -79.34375 68 -75.8125 75.65625 -68.75 C 83.320312 -61.6875 87.15625 -51.59375 87.15625 -38.46875 C 87.15625 -36.664062 87.109375 -35.460938 87.015625 -34.859375 Z M 31.859375 -49.59375 L 61.171875 -49.59375 C 60.566406 -53.601562 58.984375 -56.679688 56.421875 -58.828125 C 53.867188 -60.984375 50.59375 -62.0625 46.59375 -62.0625 C 42.175781 -62.0625 38.664062 -60.910156 36.0625 -58.609375 C 33.457031 -56.304688 32.054688 -53.300781 31.859375 -49.59375 Z M 31.859375 -49.59375 "/></g></g></g><g fill="#00b6c5" fill-opacity="0.4"><g transform="translate(999.888685, 1081.302607)"><g><path d="M 50.046875 -57.5625 C 45.035156 -57.5625 40.722656 -55.707031 37.109375 -52 C 33.503906 -48.289062 31.703125 -43.832031 31.703125 -38.625 C 31.703125 -33.3125 33.503906 -28.800781 37.109375 -25.09375 C 40.722656 -21.382812 45.035156 -19.53125 50.046875 -19.53125 C 52.453125 -19.53125 54.726562 -19.832031 56.875 -20.4375 C 59.03125 -21.039062 60.609375 -21.640625 61.609375 -22.234375 L 62.96875 -23.140625 L 71.984375 -4.65625 C 71.285156 -4.15625 70.304688 -3.53125 69.046875 -2.78125 C 67.796875 -2.03125 64.941406 -1.003906 60.484375 0.296875 C 56.023438 1.597656 51.242188 2.25 46.140625 2.25 C 34.816406 2.25 24.867188 -1.726562 16.296875 -9.6875 C 7.734375 -17.65625 3.453125 -27.203125 3.453125 -38.328125 C 3.453125 -49.546875 7.734375 -59.1875 16.296875 -67.25 C 24.867188 -75.3125 34.816406 -79.34375 46.140625 -79.34375 C 51.242188 -79.34375 55.945312 -78.738281 60.25 -77.53125 C 64.5625 -76.332031 67.625 -75.132812 69.4375 -73.9375 L 71.984375 -72.140625 L 62.96875 -53.953125 C 59.664062 -56.359375 55.359375 -57.5625 50.046875 -57.5625 Z M 50.046875 -57.5625 "/></g></g></g><g fill="#00b6c5" fill-opacity="0.4"><g transform="translate(1068.561515, 1081.302607)"><g><path d="M 97.078125 -77.09375 L 60.40625 -40.28125 L 100.6875 0 L 66.421875 0 L 35.609375 -30.8125 L 35.609375 0 L 9.015625 0 L 9.015625 -129.234375 L 35.609375 -129.234375 L 35.609375 -50.1875 L 62.515625 -77.09375 Z M 97.078125 -77.09375 "/></g></g></g><g fill="#00b6c5" fill-opacity="0.4"><g transform="translate(446.449158, 1288.302589)"><g><path d="M 111.515625 0 L 105.640625 -73.484375 L 104.890625 -73.484375 L 79.5 -0.75 L 62.671875 -0.75 L 37.265625 -73.484375 L 36.515625 -73.484375 L 30.65625 0 L 2.40625 0 L 13.53125 -123.984375 L 43.578125 -123.984375 L 71.078125 -52.453125 L 98.578125 -123.984375 L 128.640625 -123.984375 L 139.765625 0 Z M 111.515625 0 "/></g></g></g><g fill="#00b6c5" fill-opacity="0.4"><g transform="translate(583.494628, 1288.302589)"><g><path d="M 87.015625 -34.859375 L 31.109375 -34.859375 C 31.109375 -29.453125 32.859375 -25.445312 36.359375 -22.84375 C 39.867188 -20.238281 43.679688 -18.9375 47.796875 -18.9375 C 52.097656 -18.9375 55.5 -19.507812 58 -20.65625 C 60.507812 -21.8125 63.367188 -24.09375 66.578125 -27.5 L 85.8125 -17.890625 C 77.789062 -4.460938 64.460938 2.25 45.828125 2.25 C 34.210938 2.25 24.242188 -1.726562 15.921875 -9.6875 C 7.609375 -17.65625 3.453125 -27.25 3.453125 -38.46875 C 3.453125 -49.6875 7.609375 -59.300781 15.921875 -67.3125 C 24.242188 -75.332031 34.210938 -79.34375 45.828125 -79.34375 C 58.054688 -79.34375 68 -75.8125 75.65625 -68.75 C 83.320312 -61.6875 87.15625 -51.59375 87.15625 -38.46875 C 87.15625 -36.664062 87.109375 -35.460938 87.015625 -34.859375 Z M 31.859375 -49.59375 L 61.171875 -49.59375 C 60.566406 -53.601562 58.984375 -56.679688 56.421875 -58.828125 C 53.867188 -60.984375 50.59375 -62.0625 46.59375 -62.0625 C 42.175781 -62.0625 38.664062 -60.910156 36.0625 -58.609375 C 33.457031 -56.304688 32.054688 -53.300781 31.859375 -49.59375 Z M 31.859375 -49.59375 "/></g></g></g><g fill="#00b6c5" fill-opacity="0.4"><g transform="translate(668.997654, 1288.302589)"><g><path d="M 14.265625 -9.546875 C 7.054688 -17.410156 3.453125 -27.050781 3.453125 -38.46875 C 3.453125 -49.894531 7.054688 -59.5625 14.265625 -67.46875 C 21.484375 -75.382812 30.65625 -79.34375 41.78125 -79.34375 C 52 -79.34375 60.414062 -76.140625 67.03125 -69.734375 L 67.03125 -129.234375 L 93.625 -129.234375 L 93.625 0 L 67.328125 0 L 67.328125 -8.71875 L 67.03125 -8.71875 C 60.414062 -1.40625 52 2.25 41.78125 2.25 C 30.65625 2.25 21.484375 -1.679688 14.265625 -9.546875 Z M 36.890625 -51.546875 C 33.429688 -48.140625 31.703125 -43.78125 31.703125 -38.46875 C 31.703125 -33.15625 33.351562 -28.820312 36.65625 -25.46875 C 39.96875 -22.113281 44.332031 -20.4375 49.75 -20.4375 C 54.957031 -20.4375 59.238281 -22.140625 62.59375 -25.546875 C 65.945312 -28.953125 67.625 -33.257812 67.625 -38.46875 C 67.625 -43.78125 65.894531 -48.140625 62.4375 -51.546875 C 58.976562 -54.953125 54.75 -56.65625 49.75 -56.65625 C 44.632812 -56.65625 40.347656 -54.953125 36.890625 -51.546875 Z M 36.890625 -51.546875 "/></g></g></g><g fill="#00b6c5" fill-opacity="0.4"><g transform="translate(766.52225, 1288.302589)"><g><path d="M 11.5625 -120.078125 C 14.675781 -123.179688 18.382812 -124.734375 22.6875 -124.734375 C 27 -124.734375 30.707031 -123.179688 33.8125 -120.078125 C 36.914062 -116.972656 38.46875 -113.265625 38.46875 -108.953125 C 38.46875 -104.640625 36.914062 -100.929688 33.8125 -97.828125 C 30.707031 -94.722656 27 -93.171875 22.6875 -93.171875 C 18.382812 -93.171875 14.675781 -94.722656 11.5625 -97.828125 C 8.457031 -100.929688 6.90625 -104.640625 6.90625 -108.953125 C 6.90625 -113.265625 8.457031 -116.972656 11.5625 -120.078125 Z M 9.015625 -77.09375 L 9.015625 0 L 35.609375 0 L 35.609375 -77.09375 Z M 9.015625 -77.09375 "/></g></g></g><g fill="#00b6c5" fill-opacity="0.4"><g transform="translate(806.794143, 1288.302589)"><g><path d="M 50.046875 -57.5625 C 45.035156 -57.5625 40.722656 -55.707031 37.109375 -52 C 33.503906 -48.289062 31.703125 -43.832031 31.703125 -38.625 C 31.703125 -33.3125 33.503906 -28.800781 37.109375 -25.09375 C 40.722656 -21.382812 45.035156 -19.53125 50.046875 -19.53125 C 52.453125 -19.53125 54.726562 -19.832031 56.875 -20.4375 C 59.03125 -21.039062 60.609375 -21.640625 61.609375 -22.234375 L 62.96875 -23.140625 L 71.984375 -4.65625 C 71.285156 -4.15625 70.304688 -3.53125 69.046875 -2.78125 C 67.796875 -2.03125 64.941406 -1.003906 60.484375 0.296875 C 56.023438 1.597656 51.242188 2.25 46.140625 2.25 C 34.816406 2.25 24.867188 -1.726562 16.296875 -9.6875 C 7.734375 -17.65625 3.453125 -27.203125 3.453125 -38.328125 C 3.453125 -49.546875 7.734375 -59.1875 16.296875 -67.25 C 24.867188 -75.3125 34.816406 -79.34375 46.140625 -79.34375 C 51.242188 -79.34375 55.945312 -78.738281 60.25 -77.53125 C 64.5625 -76.332031 67.625 -75.132812 69.4375 -73.9375 L 71.984375 -72.140625 L 62.96875 -53.953125 C 59.664062 -56.359375 55.359375 -57.5625 50.046875 -57.5625 Z M 50.046875 -57.5625 "/></g></g></g><g fill="#00b6c5" fill-opacity="0.4"><g transform="translate(875.466974, 1288.302589)"><g><path d="M 14.265625 -9.546875 C 7.054688 -17.410156 3.453125 -27.050781 3.453125 -38.46875 C 3.453125 -49.894531 7.054688 -59.5625 14.265625 -67.46875 C 21.484375 -75.382812 30.65625 -79.34375 41.78125 -79.34375 C 52 -79.34375 60.414062 -76.140625 67.03125 -69.734375 L 67.03125 -77.09375 L 93.625 -77.09375 L 93.625 0 L 67.328125 0 L 67.328125 -8.71875 L 67.03125 -8.71875 C 60.414062 -1.40625 52 2.25 41.78125 2.25 C 30.65625 2.25 21.484375 -1.679688 14.265625 -9.546875 Z M 36.890625 -51.546875 C 33.429688 -48.140625 31.703125 -43.78125 31.703125 -38.46875 C 31.703125 -33.15625 33.351562 -28.820312 36.65625 -25.46875 C 39.96875 -22.113281 44.332031 -20.4375 49.75 -20.4375 C 54.957031 -20.4375 59.238281 -22.140625 62.59375 -25.546875 C 65.945312 -28.953125 67.625 -33.257812 67.625 -38.46875 C 67.625 -43.78125 65.894531 -48.140625 62.4375 -51.546875 C 58.976562 -54.953125 54.75 -56.65625 49.75 -56.65625 C 44.632812 -56.65625 40.347656 -54.953125 36.890625 -51.546875 Z M 36.890625 -51.546875 "/></g></g></g><g fill="#00b6c5" fill-opacity="0.4"><g transform="translate(972.991593, 1288.302589)"><g><path d="M 9.015625 0 L 9.015625 -129.234375 L 35.609375 -129.234375 L 35.609375 0 Z M 9.015625 0 "/></g></g></g><g fill="#00b6c5" fill-opacity="0.4"><g transform="translate(1012.523324, 1288.302589)"><g/></g></g><g fill="#005eb8" fill-opacity="1"><g transform="translate(334.347605, 1081.302607)"><g><path d="M 54.703125 -126.234375 C 61.410156 -126.234375 67.96875 -125.253906 74.375 -123.296875 C 80.789062 -121.347656 85.554688 -119.421875 88.671875 -117.515625 L 93.171875 -114.515625 L 81.75 -91.96875 C 80.851562 -92.570312 79.601562 -93.347656 78 -94.296875 C 76.394531 -95.253906 73.382812 -96.53125 68.96875 -98.125 C 64.5625 -99.726562 60.457031 -100.53125 56.65625 -100.53125 C 51.945312 -100.53125 48.3125 -99.53125 45.75 -97.53125 C 43.195312 -95.53125 41.921875 -92.828125 41.921875 -89.421875 C 41.921875 -87.710938 42.519531 -86.128906 43.71875 -84.671875 C 44.925781 -83.222656 46.984375 -81.671875 49.890625 -80.015625 C 52.796875 -78.367188 55.347656 -77.046875 57.546875 -76.046875 C 59.753906 -75.046875 63.164062 -73.539062 67.78125 -71.53125 C 75.789062 -68.125 82.625 -63.488281 88.28125 -57.625 C 93.945312 -51.769531 96.78125 -45.132812 96.78125 -37.71875 C 96.78125 -30.601562 95.5 -24.390625 92.9375 -19.078125 C 90.382812 -13.773438 86.878906 -9.617188 82.421875 -6.609375 C 77.960938 -3.609375 73.03125 -1.382812 67.625 0.0625 C 62.21875 1.519531 56.359375 2.25 50.046875 2.25 C 44.628906 2.25 39.316406 1.695312 34.109375 0.59375 C 28.898438 -0.5 24.539062 -1.875 21.03125 -3.53125 C 17.53125 -5.1875 14.375 -6.8125 11.5625 -8.40625 C 8.757812 -10.007812 6.707031 -11.363281 5.40625 -12.46875 L 3.453125 -14.125 L 17.578125 -37.875 C 18.785156 -36.875 20.441406 -35.59375 22.546875 -34.03125 C 24.648438 -32.476562 28.378906 -30.398438 33.734375 -27.796875 C 39.097656 -25.191406 43.832031 -23.890625 47.9375 -23.890625 C 59.863281 -23.890625 65.828125 -27.945312 65.828125 -36.0625 C 65.828125 -37.769531 65.398438 -39.347656 64.546875 -40.796875 C 63.691406 -42.253906 62.1875 -43.707031 60.03125 -45.15625 C 57.882812 -46.613281 55.984375 -47.765625 54.328125 -48.609375 C 52.671875 -49.460938 49.960938 -50.765625 46.203125 -52.515625 C 42.453125 -54.273438 39.675781 -55.601562 37.875 -56.5 C 30.351562 -60.207031 24.539062 -64.84375 20.4375 -70.40625 C 16.332031 -75.96875 14.28125 -81.953125 14.28125 -88.359375 C 14.28125 -99.484375 18.382812 -108.578125 26.59375 -115.640625 C 34.8125 -122.703125 44.179688 -126.234375 54.703125 -126.234375 Z M 54.703125 -126.234375 "/></g></g></g><g fill="#005eb8" fill-opacity="1"><g transform="translate(430.219228, 1081.302607)"><g><path d="M 88.359375 -67.546875 C 95.578125 -59.679688 99.1875 -50.035156 99.1875 -38.609375 C 99.1875 -27.191406 95.578125 -17.523438 88.359375 -9.609375 C 81.148438 -1.703125 71.984375 2.25 60.859375 2.25 C 50.640625 2.25 42.222656 -0.953125 35.609375 -7.359375 L 35.609375 39.078125 L 9.015625 39.078125 L 9.015625 -77.09375 L 35.3125 -77.09375 L 35.3125 -68.375 L 35.609375 -68.375 C 42.222656 -75.6875 50.640625 -79.34375 60.859375 -79.34375 C 71.984375 -79.34375 81.148438 -75.410156 88.359375 -67.546875 Z M 65.75 -25.546875 C 69.207031 -28.953125 70.9375 -33.3125 70.9375 -38.625 C 70.9375 -43.9375 69.28125 -48.269531 65.96875 -51.625 C 62.664062 -54.976562 58.3125 -56.65625 52.90625 -56.65625 C 47.6875 -56.65625 43.398438 -54.953125 40.046875 -51.546875 C 36.691406 -48.140625 35.015625 -43.832031 35.015625 -38.625 C 35.015625 -33.3125 36.742188 -28.953125 40.203125 -25.546875 C 43.660156 -22.140625 47.894531 -20.4375 52.90625 -20.4375 C 58.007812 -20.4375 62.289062 -22.140625 65.75 -25.546875 Z M 65.75 -25.546875 "/></g></g></g><g fill="#005eb8" fill-opacity="1"><g transform="translate(527.743813, 1081.302607)"><g><path d="M 16.296875 -9.171875 C 7.734375 -16.785156 3.453125 -26.550781 3.453125 -38.46875 C 3.453125 -50.394531 7.910156 -60.1875 16.828125 -67.84375 C 25.742188 -75.507812 36.765625 -79.34375 49.890625 -79.34375 C 62.816406 -79.34375 73.710938 -75.484375 82.578125 -67.765625 C 91.441406 -60.054688 95.875 -50.289062 95.875 -38.46875 C 95.875 -26.644531 91.539062 -16.898438 82.875 -9.234375 C 74.207031 -1.578125 63.210938 2.25 49.890625 2.25 C 36.066406 2.25 24.867188 -1.554688 16.296875 -9.171875 Z M 36.890625 -51.546875 C 33.429688 -48.140625 31.703125 -43.78125 31.703125 -38.46875 C 31.703125 -33.15625 33.351562 -28.820312 36.65625 -25.46875 C 39.96875 -22.113281 44.332031 -20.4375 49.75 -20.4375 C 54.957031 -20.4375 59.238281 -22.140625 62.59375 -25.546875 C 65.945312 -28.953125 67.625 -33.257812 67.625 -38.46875 C 67.625 -43.78125 65.894531 -48.140625 62.4375 -51.546875 C 58.976562 -54.953125 54.75 -56.65625 49.75 -56.65625 C 44.632812 -56.65625 40.347656 -54.953125 36.890625 -51.546875 Z M 36.890625 -51.546875 "/></g></g></g><g fill="#005eb8" fill-opacity="1"><g transform="translate(621.962463, 1081.302607)"><g><path d="M 13.53125 -77.09375 L 13.53125 -105.796875 L 40.125 -105.796875 L 40.125 -77.09375 L 56.359375 -77.09375 L 56.359375 -56.8125 L 40.125 -56.8125 L 40.125 -32.3125 C 40.125 -25.195312 42.128906 -21.640625 46.140625 -21.640625 C 47.140625 -21.640625 48.191406 -21.835938 49.296875 -22.234375 C 50.398438 -22.640625 51.25 -23.039062 51.84375 -23.4375 L 52.75 -24.046875 L 59.359375 -2.5625 C 53.648438 0.644531 47.140625 2.25 39.828125 2.25 C 34.816406 2.25 30.503906 1.375 26.890625 -0.375 C 23.285156 -2.125 20.554688 -4.476562 18.703125 -7.4375 C 16.859375 -10.394531 15.535156 -13.5 14.734375 -16.75 C 13.929688 -20.007812 13.53125 -23.492188 13.53125 -27.203125 L 13.53125 -56.8125 L 2.40625 -56.8125 L 2.40625 -77.09375 Z M 13.53125 -77.09375 "/></g></g></g><g fill="#005eb8" fill-opacity="1"><g transform="translate(676.209445, 1081.302607)"><g/></g></g><g fill="#005eb8" fill-opacity="1"><g transform="translate(712.123543, 1081.302607)"><g><path d="M 74.984375 -25.546875 C 79.296875 -25.546875 83.476562 -26.195312 87.53125 -27.5 C 91.59375 -28.800781 94.578125 -30.054688 96.484375 -31.265625 L 99.328125 -33.21875 L 111.359375 -9.171875 C 110.953125 -8.867188 110.398438 -8.46875 109.703125 -7.96875 C 109.003906 -7.46875 107.375 -6.539062 104.8125 -5.1875 C 102.257812 -3.832031 99.53125 -2.65625 96.625 -1.65625 C 93.71875 -0.65625 89.910156 0.242188 85.203125 1.046875 C 80.492188 1.847656 75.632812 2.25 70.625 2.25 C 59.101562 2.25 48.179688 -0.578125 37.859375 -6.234375 C 27.546875 -11.898438 19.234375 -19.691406 12.921875 -29.609375 C 6.609375 -39.523438 3.453125 -50.242188 3.453125 -61.765625 C 3.453125 -70.484375 5.304688 -78.847656 9.015625 -86.859375 C 12.722656 -94.878906 17.65625 -101.742188 23.8125 -107.453125 C 29.976562 -113.160156 37.164062 -117.71875 45.375 -121.125 C 53.59375 -124.53125 62.007812 -126.234375 70.625 -126.234375 C 78.644531 -126.234375 86.035156 -125.28125 92.796875 -123.375 C 99.554688 -121.476562 104.34375 -119.578125 107.15625 -117.671875 L 111.359375 -114.8125 L 99.328125 -90.765625 C 98.628906 -91.367188 97.578125 -92.09375 96.171875 -92.9375 C 94.773438 -93.789062 91.972656 -94.921875 87.765625 -96.328125 C 83.554688 -97.734375 79.296875 -98.4375 74.984375 -98.4375 C 68.171875 -98.4375 62.0625 -97.332031 56.65625 -95.125 C 51.25 -92.925781 46.96875 -90.019531 43.8125 -86.40625 C 40.65625 -82.800781 38.25 -78.921875 36.59375 -74.765625 C 34.9375 -70.609375 34.109375 -66.375 34.109375 -62.0625 C 34.109375 -52.644531 37.640625 -44.203125 44.703125 -36.734375 C 51.765625 -29.273438 61.859375 -25.546875 74.984375 -25.546875 Z M 74.984375 -25.546875 "/></g></g></g><g fill="#005eb8" fill-opacity="1"><g transform="translate(820.167021, 1081.302607)"><g><path d="M 9.015625 0 L 9.015625 -129.234375 L 35.609375 -129.234375 L 35.609375 -68.984375 L 35.921875 -68.984375 C 42.828125 -75.890625 50.191406 -79.34375 58.015625 -79.34375 C 61.816406 -79.34375 65.59375 -78.84375 69.34375 -77.84375 C 73.101562 -76.84375 76.710938 -75.289062 80.171875 -73.1875 C 83.628906 -71.082031 86.4375 -68.097656 88.59375 -64.234375 C 90.75 -60.378906 91.828125 -55.898438 91.828125 -50.796875 L 91.828125 0 L 65.21875 0 L 65.21875 -43.578125 C 65.21875 -47.585938 63.941406 -51.09375 61.390625 -54.09375 C 58.835938 -57.101562 55.503906 -58.609375 51.390625 -58.609375 C 47.390625 -58.609375 43.757812 -57.054688 40.5 -53.953125 C 37.238281 -50.847656 35.609375 -47.390625 35.609375 -43.578125 L 35.609375 0 Z M 9.015625 0 "/></g></g></g><g fill="#005eb8" fill-opacity="1"><g transform="translate(914.385671, 1081.302607)"><g><path d="M 87.015625 -34.859375 L 31.109375 -34.859375 C 31.109375 -29.453125 32.859375 -25.445312 36.359375 -22.84375 C 39.867188 -20.238281 43.679688 -18.9375 47.796875 -18.9375 C 52.097656 -18.9375 55.5 -19.507812 58 -20.65625 C 60.507812 -21.8125 63.367188 -24.09375 66.578125 -27.5 L 85.8125 -17.890625 C 77.789062 -4.460938 64.460938 2.25 45.828125 2.25 C 34.210938 2.25 24.242188 -1.726562 15.921875 -9.6875 C 7.609375 -17.65625 3.453125 -27.25 3.453125 -38.46875 C 3.453125 -49.6875 7.609375 -59.300781 15.921875 -67.3125 C 24.242188 -75.332031 34.210938 -79.34375 45.828125 -79.34375 C 58.054688 -79.34375 68 -75.8125 75.65625 -68.75 C 83.320312 -61.6875 87.15625 -51.59375 87.15625 -38.46875 C 87.15625 -36.664062 87.109375 -35.460938 87.015625 -34.859375 Z M 31.859375 -49.59375 L 61.171875 -49.59375 C 60.566406 -53.601562 58.984375 -56.679688 56.421875 -58.828125 C 53.867188 -60.984375 50.59375 -62.0625 46.59375 -62.0625 C 42.175781 -62.0625 38.664062 -60.910156 36.0625 -58.609375 C 33.457031 -56.304688 32.054688 -53.300781 31.859375 -49.59375 Z M 31.859375 -49.59375 "/></g></g></g><g fill="#005eb8" fill-opacity="1"><g transform="translate(999.888685, 1081.302607)"><g><path d="M 50.046875 -57.5625 C 45.035156 -57.5625 40.722656 -55.707031 37.109375 -52 C 33.503906 -48.289062 31.703125 -43.832031 31.703125 -38.625 C 31.703125 -33.3125 33.503906 -28.800781 37.109375 -25.09375 C 40.722656 -21.382812 45.035156 -19.53125 50.046875 -19.53125 C 52.453125 -19.53125 54.726562 -19.832031 56.875 -20.4375 C 59.03125 -21.039062 60.609375 -21.640625 61.609375 -22.234375 L 62.96875 -23.140625 L 71.984375 -4.65625 C 71.285156 -4.15625 70.304688 -3.53125 69.046875 -2.78125 C 67.796875 -2.03125 64.941406 -1.003906 60.484375 0.296875 C 56.023438 1.597656 51.242188 2.25 46.140625 2.25 C 34.816406 2.25 24.867188 -1.726562 16.296875 -9.6875 C 7.734375 -17.65625 3.453125 -27.203125 3.453125 -38.328125 C 3.453125 -49.546875 7.734375 -59.1875 16.296875 -67.25 C 24.867188 -75.3125 34.816406 -79.34375 46.140625 -79.34375 C 51.242188 -79.34375 55.945312 -78.738281 60.25 -77.53125 C 64.5625 -76.332031 67.625 -75.132812 69.4375 -73.9375 L 71.984375 -72.140625 L 62.96875 -53.953125 C 59.664062 -56.359375 55.359375 -57.5625 50.046875 -57.5625 Z M 50.046875 -57.5625 "/></g></g></g><g fill="#005eb8" fill-opacity="1"><g transform="translate(1068.561515, 1081.302607)"><g><path d="M 97.078125 -77.09375 L 60.40625 -40.28125 L 100.6875 0 L 66.421875 0 L 35.609375 -30.8125 L 35.609375 0 L 9.015625 0 L 9.015625 -129.234375 L 35.609375 -129.234375 L 35.609375 -50.1875 L 62.515625 -77.09375 Z M 97.078125 -77.09375 "/></g></g></g><g fill="#005eb8" fill-opacity="1"><g transform="translate(446.449158, 1288.302589)"><g><path d="M 111.515625 0 L 105.640625 -73.484375 L 104.890625 -73.484375 L 79.5 -0.75 L 62.671875 -0.75 L 37.265625 -73.484375 L 36.515625 -73.484375 L 30.65625 0 L 2.40625 0 L 13.53125 -123.984375 L 43.578125 -123.984375 L 71.078125 -52.453125 L 98.578125 -123.984375 L 128.640625 -123.984375 L 139.765625 0 Z M 111.515625 0 "/></g></g></g><g fill="#005eb8" fill-opacity="1"><g transform="translate(583.494628, 1288.302589)"><g><path d="M 87.015625 -34.859375 L 31.109375 -34.859375 C 31.109375 -29.453125 32.859375 -25.445312 36.359375 -22.84375 C 39.867188 -20.238281 43.679688 -18.9375 47.796875 -18.9375 C 52.097656 -18.9375 55.5 -19.507812 58 -20.65625 C 60.507812 -21.8125 63.367188 -24.09375 66.578125 -27.5 L 85.8125 -17.890625 C 77.789062 -4.460938 64.460938 2.25 45.828125 2.25 C 34.210938 2.25 24.242188 -1.726562 15.921875 -9.6875 C 7.609375 -17.65625 3.453125 -27.25 3.453125 -38.46875 C 3.453125 -49.6875 7.609375 -59.300781 15.921875 -67.3125 C 24.242188 -75.332031 34.210938 -79.34375 45.828125 -79.34375 C 58.054688 -79.34375 68 -75.8125 75.65625 -68.75 C 83.320312 -61.6875 87.15625 -51.59375 87.15625 -38.46875 C 87.15625 -36.664062 87.109375 -35.460938 87.015625 -34.859375 Z M 31.859375 -49.59375 L 61.171875 -49.59375 C 60.566406 -53.601562 58.984375 -56.679688 56.421875 -58.828125 C 53.867188 -60.984375 50.59375 -62.0625 46.59375 -62.0625 C 42.175781 -62.0625 38.664062 -60.910156 36.0625 -58.609375 C 33.457031 -56.304688 32.054688 -53.300781 31.859375 -49.59375 Z M 31.859375 -49.59375 "/></g></g></g><g fill="#005eb8" fill-opacity="1"><g transform="translate(668.997654, 1288.302589)"><g><path d="M 14.265625 -9.546875 C 7.054688 -17.410156 3.453125 -27.050781 3.453125 -38.46875 C 3.453125 -49.894531 7.054688 -59.5625 14.265625 -67.46875 C 21.484375 -75.382812 30.65625 -79.34375 41.78125 -79.34375 C 52 -79.34375 60.414062 -76.140625 67.03125 -69.734375 L 67.03125 -129.234375 L 93.625 -129.234375 L 93.625 0 L 67.328125 0 L 67.328125 -8.71875 L 67.03125 -8.71875 C 60.414062 -1.40625 52 2.25 41.78125 2.25 C 30.65625 2.25 21.484375 -1.679688 14.265625 -9.546875 Z M 36.890625 -51.546875 C 33.429688 -48.140625 31.703125 -43.78125 31.703125 -38.46875 C 31.703125 -33.15625 33.351562 -28.820312 36.65625 -25.46875 C 39.96875 -22.113281 44.332031 -20.4375 49.75 -20.4375 C 54.957031 -20.4375 59.238281 -22.140625 62.59375 -25.546875 C 65.945312 -28.953125 67.625 -33.257812 67.625 -38.46875 C 67.625 -43.78125 65.894531 -48.140625 62.4375 -51.546875 C 58.976562 -54.953125 54.75 -56.65625 49.75 -56.65625 C 44.632812 -56.65625 40.347656 -54.953125 36.890625 -51.546875 Z M 36.890625 -51.546875 "/></g></g></g><g fill="#005eb8" fill-opacity="1"><g transform="translate(766.52225, 1288.302589)"><g><path d="M 11.5625 -120.078125 C 14.675781 -123.179688 18.382812 -124.734375 22.6875 -124.734375 C 27 -124.734375 30.707031 -123.179688 33.8125 -120.078125 C 36.914062 -116.972656 38.46875 -113.265625 38.46875 -108.953125 C 38.46875 -104.640625 36.914062 -100.929688 33.8125 -97.828125 C 30.707031 -94.722656 27 -93.171875 22.6875 -93.171875 C 18.382812 -93.171875 14.675781 -94.722656 11.5625 -97.828125 C 8.457031 -100.929688 6.90625 -104.640625 6.90625 -108.953125 C 6.90625 -113.265625 8.457031 -116.972656 11.5625 -120.078125 Z M 9.015625 -77.09375 L 9.015625 0 L 35.609375 0 L 35.609375 -77.09375 Z M 9.015625 -77.09375 "/></g></g></g><g fill="#005eb8" fill-opacity="1"><g transform="translate(806.794143, 1288.302589)"><g><path d="M 50.046875 -57.5625 C 45.035156 -57.5625 40.722656 -55.707031 37.109375 -52 C 33.503906 -48.289062 31.703125 -43.832031 31.703125 -38.625 C 31.703125 -33.3125 33.503906 -28.800781 37.109375 -25.09375 C 40.722656 -21.382812 45.035156 -19.53125 50.046875 -19.53125 C 52.453125 -19.53125 54.726562 -19.832031 56.875 -20.4375 C 59.03125 -21.039062 60.609375 -21.640625 61.609375 -22.234375 L 62.96875 -23.140625 L 71.984375 -4.65625 C 71.285156 -4.15625 70.304688 -3.53125 69.046875 -2.78125 C 67.796875 -2.03125 64.941406 -1.003906 60.484375 0.296875 C 56.023438 1.597656 51.242188 2.25 46.140625 2.25 C 34.816406 2.25 24.867188 -1.726562 16.296875 -9.6875 C 7.734375 -17.65625 3.453125 -27.203125 3.453125 -38.328125 C 3.453125 -49.546875 7.734375 -59.1875 16.296875 -67.25 C 24.867188 -75.3125 34.816406 -79.34375 46.140625 -79.34375 C 51.242188 -79.34375 55.945312 -78.738281 60.25 -77.53125 C 64.5625 -76.332031 67.625 -75.132812 69.4375 -73.9375 L 71.984375 -72.140625 L 62.96875 -53.953125 C 59.664062 -56.359375 55.359375 -57.5625 50.046875 -57.5625 Z M 50.046875 -57.5625 "/></g></g></g><g fill="#005eb8" fill-opacity="1"><g transform="translate(875.466974, 1288.302589)"><g><path d="M 14.265625 -9.546875 C 7.054688 -17.410156 3.453125 -27.050781 3.453125 -38.46875 C 3.453125 -49.894531 7.054688 -59.5625 14.265625 -67.46875 C 21.484375 -75.382812 30.65625 -79.34375 41.78125 -79.34375 C 52 -79.34375 60.414062 -76.140625 67.03125 -69.734375 L 67.03125 -77.09375 L 93.625 -77.09375 L 93.625 0 L 67.328125 0 L 67.328125 -8.71875 L 67.03125 -8.71875 C 60.414062 -1.40625 52 2.25 41.78125 2.25 C 30.65625 2.25 21.484375 -1.679688 14.265625 -9.546875 Z M 36.890625 -51.546875 C 33.429688 -48.140625 31.703125 -43.78125 31.703125 -38.46875 C 31.703125 -33.15625 33.351562 -28.820312 36.65625 -25.46875 C 39.96875 -22.113281 44.332031 -20.4375 49.75 -20.4375 C 54.957031 -20.4375 59.238281 -22.140625 62.59375 -25.546875 C 65.945312 -28.953125 67.625 -33.257812 67.625 -38.46875 C 67.625 -43.78125 65.894531 -48.140625 62.4375 -51.546875 C 58.976562 -54.953125 54.75 -56.65625 49.75 -56.65625 C 44.632812 -56.65625 40.347656 -54.953125 36.890625 -51.546875 Z M 36.890625 -51.546875 "/></g></g></g><g fill="#005eb8" fill-opacity="1"><g transform="translate(972.991593, 1288.302589)"><g><path d="M 9.015625 0 L 9.015625 -129.234375 L 35.609375 -129.234375 L 35.609375 0 Z M 9.015625 0 "/></g></g></g><g fill="#005eb8" fill-opacity="1"><g transform="translate(1012.523324, 1288.302589)"><g/></g></g></svg>