<svg xmlns="http://www.w3.org/2000/svg" xmlns:xlink="http://www.w3.org/1999/xlink" width="2000" zoomAndPan="magnify" viewBox="0 0 1500 1499.999933" height="2000" preserveAspectRatio="xMidYMid meet" version="1.0"><defs><clipPath id="d963ed2709"><path d="M 580 862 L 914 862 L 914 918.828125 L 580 918.828125 Z M 580 862 " clip-rule="nonzero"/></clipPath><clipPath id="f647dd3796"><path d="M 964 369.078125 L 1007 369.078125 L 1007 412 L 964 412 Z M 964 369.078125 " clip-rule="nonzero"/></clipPath></defs><path fill="#005eb8" d="M 980.160156 686.253906 L 980.160156 753.335938 C 980.160156 762.335938 972.960938 769.535156 963.960938 769.535156 L 529.921875 769.535156 C 521.039062 769.535156 513.71875 762.335938 513.71875 753.335938 L 513.71875 671.132812 L 573 671.132812 C 580.558594 671.132812 586.558594 665.132812 586.558594 657.574219 C 586.558594 650.132812 580.558594 644.015625 573 644.015625 L 513.71875 644.015625 L 513.71875 594.574219 L 629.28125 594.574219 C 636.839844 594.574219 642.839844 588.574219 642.839844 581.132812 C 642.839844 573.574219 636.839844 567.574219 629.28125 567.574219 L 513.71875 567.574219 L 513.71875 485.375 C 513.71875 476.375 521.039062 469.175781 529.921875 469.175781 L 763.800781 469.175781 C 782.160156 440.015625 810.121094 417.214844 843 405.335938 L 529.921875 405.335938 C 485.878906 405.335938 450 441.214844 450 485.253906 L 450 753.335938 C 450 797.375 485.878906 833.253906 529.921875 833.253906 L 965.398438 833.253906 C 1008.960938 832.292969 1044 796.894531 1044 753.335938 L 1044 607.652344 C 1032 640.292969 1009.199219 668.015625 980.160156 686.253906 Z M 980.160156 686.253906 " fill-opacity="1" fill-rule="nonzero"/><g clip-path="url(#d963ed2709)"><path fill="#005eb8" d="M 881.640625 886.175781 L 785.28125 886.175781 L 785.28125 862.175781 L 708.71875 862.175781 L 708.71875 886.175781 L 612.359375 886.175781 C 594.601562 886.175781 580.078125 900.574219 580.078125 918.453125 L 913.800781 918.453125 C 913.800781 900.574219 899.398438 886.175781 881.640625 886.175781 Z M 881.640625 886.175781 " fill-opacity="1" fill-rule="nonzero"/></g><path fill="#005eb8" d="M 989.640625 569.015625 L 1029.71875 569.015625 C 1022.039062 635.613281 965.398438 687.453125 896.640625 687.453125 C 834.238281 687.453125 781.679688 644.855469 766.679688 587.132812 L 830.039062 587.132812 C 833.640625 587.132812 836.640625 584.253906 836.640625 580.535156 L 836.640625 574.054688 L 855.601562 605.972656 C 857.039062 608.375 859.800781 609.574219 862.558594 608.972656 C 865.320312 608.496094 867.359375 606.214844 867.839844 603.453125 L 880.441406 510.214844 L 892.441406 657.8125 C 892.679688 660.933594 895.199219 663.574219 898.441406 663.8125 C 898.679688 663.8125 898.800781 663.933594 898.921875 663.933594 C 901.921875 663.933594 904.558594 661.894531 905.28125 658.894531 L 923.398438 587.613281 L 937.558594 612.335938 C 938.878906 614.855469 941.878906 616.054688 944.640625 615.574219 C 947.398438 614.972656 949.558594 612.574219 949.800781 609.695312 L 953.878906 566.015625 L 968.398438 601.175781 C 969.480469 603.695312 972 605.375 974.878906 605.132812 C 977.640625 605.015625 980.039062 603.09375 980.878906 600.453125 Z M 989.640625 569.015625 " fill-opacity="1" fill-rule="nonzero"/><path fill="#005eb8" d="M 1030.800781 553.175781 C 1030.800781 554.132812 1030.800781 554.972656 1030.679688 555.933594 L 984.71875 555.933594 C 981.839844 555.933594 979.199219 557.972656 978.359375 560.734375 L 973.078125 578.972656 L 955.679688 536.613281 C 954.480469 533.734375 951.601562 532.175781 948.601562 532.652344 C 945.71875 533.015625 943.320312 535.535156 943.078125 538.535156 L 938.519531 587.972656 L 926.761719 567.214844 C 925.441406 564.8125 922.800781 563.492188 920.039062 563.855469 C 917.398438 564.214844 915.238281 566.132812 914.640625 568.773438 L 902.160156 617.613281 L 888.480469 448.773438 C 888.238281 445.414062 885.480469 442.773438 882.121094 442.773438 C 878.28125 442.292969 875.878906 445.054688 875.398438 448.414062 L 857.160156 583.054688 L 835.679688 546.8125 C 834.121094 544.175781 831.121094 543.09375 828.238281 543.8125 C 825.359375 544.652344 823.441406 547.175781 823.441406 550.175781 L 823.441406 573.933594 L 764.039062 573.933594 C 762.839844 567.09375 762.359375 560.132812 762.359375 553.054688 C 762.359375 479.132812 822.480469 418.652344 896.761719 418.652344 C 916.441406 418.652344 934.921875 422.972656 951.71875 430.414062 C 951.601562 430.894531 951.480469 431.613281 951.480469 432.09375 L 951.480469 465.574219 C 951.480469 470.132812 955.199219 473.972656 959.878906 473.972656 L 993.359375 473.972656 C 996.839844 473.972656 999.839844 471.8125 1001.039062 468.695312 C 1019.640625 491.855469 1030.800781 521.253906 1030.800781 553.175781 Z M 1030.800781 553.175781 " fill-opacity="1" fill-rule="nonzero"/><path fill="#005eb8" d="M 967.441406 464.496094 L 988.199219 464.496094 C 991.078125 464.496094 993.359375 462.214844 993.359375 459.335938 L 993.359375 438.574219 C 993.359375 435.695312 991.078125 433.414062 988.199219 433.414062 L 967.441406 433.414062 C 964.558594 433.414062 962.28125 435.695312 962.28125 438.574219 L 962.28125 459.335938 C 962.398438 462.214844 964.679688 464.496094 967.441406 464.496094 Z M 967.441406 464.496094 " fill-opacity="1" fill-rule="nonzero"/><g clip-path="url(#f647dd3796)"><path fill="#005eb8" d="M 969.839844 411.574219 L 1001.160156 411.574219 C 1004.160156 411.574219 1006.558594 409.175781 1006.558594 406.175781 L 1006.558594 374.855469 C 1006.558594 371.855469 1004.160156 369.453125 1001.160156 369.453125 L 969.839844 369.453125 C 966.839844 369.453125 964.441406 371.855469 964.441406 374.855469 L 964.441406 406.175781 C 964.320312 409.175781 966.839844 411.574219 969.839844 411.574219 Z M 969.839844 411.574219 " fill-opacity="1" fill-rule="nonzero"/></g><path fill="#005eb8" d="M 1045.921875 418.175781 L 1022.160156 418.175781 C 1019.878906 418.175781 1018.078125 419.972656 1018.078125 422.253906 L 1018.078125 446.015625 C 1018.078125 448.292969 1019.878906 450.09375 1022.160156 450.09375 L 1045.921875 450.09375 C 1048.199219 450.09375 1050 448.292969 1050 446.015625 L 1050 422.375 C 1050 420.09375 1048.199219 418.175781 1045.921875 418.175781 Z M 1045.921875 418.175781 " fill-opacity="1" fill-rule="nonzero"/></svg>