<svg xmlns="http://www.w3.org/2000/svg" xmlns:xlink="http://www.w3.org/1999/xlink" width="2000" zoomAndPan="magnify" viewBox="0 0 1500 1499.999933" height="2000" preserveAspectRatio="xMidYMid meet" version="1.0"><defs><clipPath id="84b001a5c6"><path d="M 12.179688 157 L 1474 157 L 1474 1210 L 12.179688 1210 Z M 12.179688 157 " clip-rule="nonzero"/></clipPath></defs><g clip-path="url(#84b001a5c6)"><path fill="#005eb8" d="M 1316.054688 848.449219 L 1316.054688 1013.425781 C 1316.054688 1035.5625 1298.347656 1053.269531 1276.210938 1053.269531 L 208.734375 1053.269531 C 186.894531 1053.269531 168.894531 1035.5625 168.894531 1013.425781 L 168.894531 811.265625 L 314.6875 811.265625 C 333.28125 811.265625 348.035156 796.507812 348.035156 777.914062 C 348.035156 759.617188 333.28125 744.566406 314.6875 744.566406 L 168.894531 744.566406 L 168.894531 622.972656 L 453.101562 622.972656 C 471.695312 622.972656 486.449219 608.21875 486.449219 589.917969 C 486.449219 571.324219 471.695312 556.570312 453.101562 556.570312 L 168.894531 556.570312 L 168.894531 354.40625 C 168.894531 332.273438 186.894531 314.566406 208.734375 314.566406 L 783.9375 314.566406 C 829.09375 242.847656 897.859375 186.773438 978.722656 157.558594 L 208.734375 157.558594 C 100.425781 157.558594 12.179688 245.800781 12.179688 354.113281 L 12.179688 1013.425781 C 12.179688 1121.738281 100.425781 1209.980469 208.734375 1209.980469 L 1279.753906 1209.980469 C 1386.882812 1207.621094 1473.0625 1120.558594 1473.0625 1013.425781 L 1473.0625 655.140625 C 1443.546875 735.417969 1387.472656 803.589844 1316.054688 848.449219 Z M 1316.054688 848.449219 " fill-opacity="1" fill-rule="nonzero"/></g><path fill="#005eb8" d="M 1073.753906 1340.132812 L 836.765625 1340.132812 L 836.765625 1281.105469 L 648.476562 1281.105469 L 648.476562 1340.132812 L 411.488281 1340.132812 C 367.808594 1340.132812 332.097656 1375.546875 332.097656 1419.523438 L 1152.847656 1419.523438 C 1152.847656 1375.546875 1117.433594 1340.132812 1073.753906 1340.132812 Z M 1073.753906 1340.132812 " fill-opacity="1" fill-rule="nonzero"/><path fill="#005eb8" d="M 1339.367188 560.109375 L 1437.941406 560.109375 C 1419.054688 723.90625 1279.753906 851.402344 1110.644531 851.402344 C 957.179688 851.402344 827.914062 746.632812 791.023438 604.675781 L 946.847656 604.675781 C 955.703125 604.675781 963.082031 597.59375 963.082031 588.445312 L 963.082031 572.507812 L 1009.710938 651.011719 C 1013.253906 656.914062 1020.039062 659.863281 1026.828125 658.386719 C 1033.617188 657.207031 1038.632812 651.601562 1039.8125 644.8125 L 1070.800781 415.5 L 1100.316406 778.503906 C 1100.90625 786.179688 1107.101562 792.671875 1115.070312 793.261719 C 1115.660156 793.261719 1115.957031 793.558594 1116.253906 793.558594 C 1123.628906 793.558594 1130.125 788.539062 1131.894531 781.160156 L 1176.457031 605.855469 L 1211.285156 666.652344 C 1214.53125 672.851562 1221.90625 675.800781 1228.695312 674.621094 C 1235.484375 673.144531 1240.796875 667.242188 1241.386719 660.160156 L 1251.421875 552.734375 L 1287.132812 639.207031 C 1289.785156 645.402344 1295.984375 649.535156 1303.066406 648.945312 C 1309.855469 648.648438 1315.757812 643.925781 1317.824219 637.433594 Z M 1339.367188 560.109375 " fill-opacity="1" fill-rule="nonzero"/><path fill="#005eb8" d="M 1440.597656 521.15625 C 1440.597656 523.515625 1440.597656 525.582031 1440.300781 527.941406 L 1327.269531 527.941406 C 1320.183594 527.941406 1313.691406 532.960938 1311.625 539.746094 L 1298.640625 584.605469 L 1255.847656 480.425781 C 1252.894531 473.34375 1245.8125 469.507812 1238.433594 470.6875 C 1231.351562 471.574219 1225.449219 477.769531 1224.859375 485.148438 L 1213.644531 606.742188 L 1184.722656 555.683594 C 1181.476562 549.78125 1174.984375 546.535156 1168.195312 547.421875 C 1161.703125 548.304688 1156.390625 553.027344 1154.914062 559.519531 L 1124.222656 679.636719 L 1090.578125 264.394531 C 1089.984375 256.128906 1083.199219 249.636719 1074.933594 249.636719 C 1065.492188 248.457031 1059.589844 255.246094 1058.40625 263.507812 L 1013.546875 594.640625 L 960.71875 505.511719 C 956.882812 499.019531 949.503906 496.363281 942.421875 498.132812 C 935.339844 500.199219 930.617188 506.398438 930.617188 513.777344 L 930.617188 572.210938 L 784.527344 572.210938 C 781.578125 555.390625 780.398438 538.273438 780.398438 520.859375 C 780.398438 339.0625 928.257812 190.316406 1110.941406 190.316406 C 1159.339844 190.316406 1204.789062 200.941406 1246.109375 219.238281 C 1245.8125 220.417969 1245.519531 222.191406 1245.519531 223.371094 L 1245.519531 305.710938 C 1245.519531 316.925781 1254.667969 326.371094 1266.175781 326.371094 L 1348.515625 326.371094 C 1357.074219 326.371094 1364.453125 321.058594 1367.40625 313.386719 C 1413.152344 370.34375 1440.597656 442.652344 1440.597656 521.15625 Z M 1440.597656 521.15625 " fill-opacity="1" fill-rule="nonzero"/><path fill="#005eb8" d="M 1284.769531 303.054688 L 1335.828125 303.054688 C 1342.910156 303.054688 1348.515625 297.449219 1348.515625 290.363281 L 1348.515625 239.308594 C 1348.515625 232.226562 1342.910156 226.617188 1335.828125 226.617188 L 1284.769531 226.617188 C 1277.6875 226.617188 1272.078125 232.226562 1272.078125 239.308594 L 1272.078125 290.363281 C 1272.375 297.449219 1277.980469 303.054688 1284.769531 303.054688 Z M 1284.769531 303.054688 " fill-opacity="1" fill-rule="nonzero"/><path fill="#005eb8" d="M 1290.671875 172.902344 L 1367.699219 172.902344 C 1375.078125 172.902344 1380.980469 167 1380.980469 159.625 L 1380.980469 82.59375 C 1380.980469 75.21875 1375.078125 69.316406 1367.699219 69.316406 L 1290.671875 69.316406 C 1283.292969 69.316406 1277.390625 75.21875 1277.390625 82.59375 L 1277.390625 159.625 C 1277.097656 167 1283.292969 172.902344 1290.671875 172.902344 Z M 1290.671875 172.902344 " fill-opacity="1" fill-rule="nonzero"/><path fill="#005eb8" d="M 1477.785156 189.136719 L 1419.347656 189.136719 C 1413.742188 189.136719 1409.3125 193.5625 1409.3125 199.171875 L 1409.3125 257.605469 C 1409.3125 263.214844 1413.742188 267.640625 1419.347656 267.640625 L 1477.785156 267.640625 C 1483.390625 267.640625 1487.816406 263.214844 1487.816406 257.605469 L 1487.816406 199.464844 C 1487.816406 193.859375 1483.390625 189.136719 1477.785156 189.136719 Z M 1477.785156 189.136719 " fill-opacity="1" fill-rule="nonzero"/></svg>